<?xml version="1.0" encoding="utf-8"?>
<!-- Generator: Adobe Illustrator 23.0.2, SVG Export Plug-In . SVG Version: 6.00 Build 0)  -->
<svg version="1.1" id="Livello_1" xmlns="http://www.w3.org/2000/svg" xmlns:xlink="http://www.w3.org/1999/xlink" x="0px" y="0px"
	 viewBox="0 0 223 61" style="enable-background:new 0 0 223 61;" xml:space="preserve">
<style type="text/css">
	.st0{fill:#FFFFFF;}
</style>
<g>
	<g id="svg_1" transform="translate(0,1198) scale(0.10000000149011612,-0.10000000149011612) ">
		<path id="svg_2" class="st0" d="M2170.6,11979c-4.9-0.5-23.2-2.2-40.6-3.7c-514-46.6-1096.9-174.9-1603.3-353.1l-34.5-12.1
			l341.1-0.3c324-0.2,341.2-0.1,343.1,1.4c11.4,9.4,44,33.1,59.2,43.2c182.4,120.7,455.4,223.7,771.5,291
			c51.8,11,130.8,26.1,163.9,31.3c5.8,0.9,10.8,2.1,11.3,2.5C2183.3,11980.2,2183.4,11980.2,2170.6,11979z"/>
		<path id="svg_3" class="st0" d="M2189.5,11972.1c-237.9-48.8-436.8-113-608.9-196.9c-101.5-49.4-197-110.5-249.9-159.7l-6.1-5.7
			l337.2-0.1h337.2l-9.8,7.3c-11.8,8.8-29.1,25.4-36.2,34.7c-16.3,21.3-23.5,40.7-23.5,63.9c0,17.8,3.5,31.8,12.8,50.8
			c16.2,33.3,50.5,70.1,98.5,106c43.6,32.6,106.8,68.9,171,98.3c16.6,7.7,20.2,9.5,17.5,9.4
			C2228.4,11980,2210.6,11976.4,2189.5,11972.1z"/>
		<path id="svg_4" class="st0" d="M656.9,11549.1c-10-9-37.1-33.3-60.3-54.1c-23.1-20.8-50.5-45.4-60.9-54.7
			c-10.4-9.3-20-18.6-21.4-20.8c-3.5-5.4-5.9-14.8-5.1-20.7c1.7-12.4,10.6-20.1,28.4-24.8c6.2-1.6,14-1.7,133.7-2l127.1-0.3
			l23.4,21.5l23.5,21.4l-124.4,0.5l-124.3,0.5l80,71.3c44,39.2,81.8,72.9,83.9,74.8l3.9,3.5l-44.6,0.1H675L656.9,11549.1z"/>
		<path id="svg_5" class="st0" d="M853.9,11553c-7.7-6.8-18.1-16.5-23.2-21.5l-9.2-9.1l88.6-0.5l88.6-0.5l-63.4-56.8
			c-34.8-31.3-72.3-64.6-83.3-74.2c-11-9.5-20-17.7-20-18c-0.1-0.5,21.1-0.8,47-0.8h47.1l17.8,15.5c9.8,8.5,35.9,31.5,58,51.2
			c22.1,19.7,52,46,66.4,58.7l26.3,23h66.5c36.7,0,66.6-0.2,66.6-0.4c0-0.2-9.4-8.7-21-18.8c-11.6-10-41-36.1-65.5-57.8
			c-24.4-21.7-52.2-46.3-61.9-54.6c-9.6-8.3-17.6-15.5-17.8-16c-0.2-0.4,22.3-0.8,49.9-0.8h50.3l14.8,12.9
			c8.1,7.2,24.1,21.3,35.5,31.5c11.4,10.1,23.4,20.7,26.6,23.4l5.8,4.9h90c86.4,0,90.3-0.1,94.1-1.8c4.7-2.2,6.3-4.8,5.7-9.7
			c-0.9-6.1-5.1-11.2-22.2-26.6c-21.3-19.1-38-34.9-38-35.7c0-0.5,23.5-0.8,52.2-0.8h52.2l14.2,12.5c20.9,18.5,33.2,30.8,36.2,36.1
			c7.1,12.4,7.5,25.7,1.2,34.4l-1.8,2.4l13.3,4.4c36.5,12.2,66,28.4,83.3,45.7c11.1,11.1,14.9,18.4,14.9,28.3
			c0,13.6-7.6,22.3-25.9,29.3l-5.2,2l-370.5,0.3l-370.4,0.2L853.9,11553z M1522.7,11526.3c2-1,3.9-2.9,4.5-4.4
			c0.9-2.4,0.9-3.3-1-6.7c-4.4-7.9-17.2-14.3-32.5-16.1c-4.5-0.6-45.2-0.8-101-0.7l-93.3,0.3l12.1,11c6.7,6,14.3,12.8,16.7,14.9
			l4.6,4l93.2-0.3C1513.9,11528,1519.4,11527.9,1522.7,11526.3z"/>
		<path id="svg_6" class="st0" d="M454.9,11562c-11.4-1.6-22.9-4.5-33.1-8.5c-13.5-5.3-420.8-180.1-421.8-181
			c-0.5-0.5,23.5-0.9,63.6-0.9H128l55.3,24.6l55.3,24.6l80.3-0.2l80.2-0.3l-7.4-18.4c-4.1-10.1-8.5-20.6-9.8-23.3
			c-1.4-2.7-2.6-5.4-2.6-6c0-0.7,13.9-0.8,44-0.8l43.9,0.3l10.2,25.5c5.7,14.1,15.2,37.5,21.3,52.2c27.3,66.2,33.8,83.5,34.3,90.6
			c0.7,8.5-0.7,12.6-5.4,16.8c-6.2,5.6-10.2,6.2-38.6,6.1C474.2,11563.3,460.2,11562.8,454.9,11562z M441,11492.9
			c-4.4-10.9-8.2-20.4-8.5-21.3c-0.5-1.6-3.2-1.7-39.9-1.7h-39.3l10.4,4.7c57.9,26.3,83.3,37.6,84.3,37.7
			C448.6,11512.4,445.5,11503.6,441,11492.9z"/>
		<path id="svg_7" class="st0" d="M1949.5,11562c-9.6-1.3-20.9-4-29.3-7c-7.6-2.6-424.5-181.5-425.6-182.5
			c-0.5-0.5,23.5-0.9,63.5-0.9h64.2l55.4,24.6l55.3,24.6l80.3-0.2l80.3-0.3l-6.3-16.1c-3.5-8.8-7.9-19.5-9.8-23.5s-3.5-7.8-3.5-8.3
			c0-0.4,19.5-0.7,43.9-0.6l43.9,0.3l13.1,32.6c7.2,18,18.6,46,25.3,62.4c21.6,52.4,26.9,66.8,27.5,73.8c0.6,7.9-0.9,12.1-5.5,16.3
			c-6.2,5.6-10.2,6.2-38.6,6.1C1968.8,11563.3,1954.8,11562.8,1949.5,11562z M1935.1,11491.4l-8.7-21.4l-39.2,0.1H1848l5.2,2.4
			c2.8,1.3,24.4,11,47.7,21.5c23.4,10.5,42.6,19.1,42.7,19C1943.8,11512.8,1939.9,11503.2,1935.1,11491.4z"/>
	</g>
</g>
</svg>
